<?xml version="1.0" standalone="no"?>
 <!DOCTYPE svg PUBLIC "-//W3C//DTD SVG 1.1//EN" 
 "http://www.w3.org/Graphics/SVG/1.1/DTD/svg11.dtd"> 
<svg
  xmlns:svg="http://www.w3.org/2000/svg"
  xmlns="http://www.w3.org/2000/svg"
  xmlns:xlink="http://www.w3.org/1999/xlink"
  version="1.1"
  width="98.1964mm" height="148.0312mm" viewBox="0.0000 0.0000 98.1964 148.0312">
<title>SVG Image created as osc_frontplate-Edge_Cuts.svg date 2025/10/19 16:17:45 </title>
  <desc>Image generated by PCBNEW </desc>
<g style="fill:#000000; fill-opacity:1.0000;stroke:#000000; stroke-opacity:1.0000;
stroke-linecap:round; stroke-linejoin:round;"
 transform="translate(0 0) scale(1 1)">
</g>
<g style="fill:none; 
stroke:#000000; stroke-width:0.0500; stroke-opacity:1; 
stroke-linecap:round; stroke-linejoin:round;">
<circle cx="28.8400" cy="108.8850" r="3.7000" /> 
<circle cx="88.7600" cy="16.1850" r="2.0000" /> 
<circle cx="48.8500" cy="128.8750" r="3.7000" /> 
<circle cx="62.1100" cy="16.2450" r="2.0000" /> 
<circle cx="8.7800" cy="37.3250" r="3.7000" /> 
<circle cx="88.8300" cy="128.8950" r="3.7000" /> 
<circle cx="35.4300" cy="37.3150" r="3.7000" /> 
<circle cx="49.0500" cy="145.0250" r="1.5000" /> 
<circle cx="88.7600" cy="37.3550" r="3.7000" /> 
<circle cx="88.0500" cy="145.0250" r="1.5000" /> 
<circle cx="62.0900" cy="37.3350" r="3.7000" /> 
<circle cx="48.8400" cy="108.8950" r="3.7000" /> 
<circle cx="10.0500" cy="3.0250" r="1.5000" /> 
<circle cx="68.8400" cy="108.8750" r="3.7000" /> 
<circle cx="10.0500" cy="145.0250" r="1.5000" /> 
<circle cx="88.0500" cy="3.0250" r="1.5000" /> 
<circle cx="28.8300" cy="128.8650" r="3.7000" /> 
<circle cx="68.8300" cy="128.8850" r="3.7000" /> 
<circle cx="8.8200" cy="16.2650" r="2.0000" /> 
<circle cx="49.0500" cy="3.0250" r="1.5000" /> 
<circle cx="88.8600" cy="108.8850" r="3.7000" /> 
<path style="fill:none; 
stroke:#000000; stroke-width:0.0500; stroke-opacity:1; 
stroke-linecap:round; stroke-linejoin:round;fill:none"
d="M 0.0500,0.0250
98.0500,0.0250
98.0500,148.0250
0.0500,148.0250
Z" /> 
<circle cx="8.8300" cy="128.8850" r="3.7000" /> 
<circle cx="8.8400" cy="108.8950" r="3.7000" /> 
<circle cx="28.8400" cy="108.8850" r="3.7000" /> 
<circle cx="88.7600" cy="16.1850" r="2.0000" /> 
<circle cx="48.8500" cy="128.8750" r="3.7000" /> 
<circle cx="62.1100" cy="16.2450" r="2.0000" /> 
<circle cx="8.7800" cy="37.3250" r="3.7000" /> 
<circle cx="88.8300" cy="128.8950" r="3.7000" /> 
<circle cx="35.4300" cy="37.3150" r="3.7000" /> 
<circle cx="49.0500" cy="145.0250" r="1.5000" /> 
<circle cx="88.7600" cy="37.3550" r="3.7000" /> 
<circle cx="88.0500" cy="145.0250" r="1.5000" /> 
<circle cx="62.0900" cy="37.3350" r="3.7000" /> 
<circle cx="48.8400" cy="108.8950" r="3.7000" /> 
<circle cx="10.0500" cy="3.0250" r="1.5000" /> 
<circle cx="68.8400" cy="108.8750" r="3.7000" /> 
<circle cx="10.0500" cy="145.0250" r="1.5000" /> 
<circle cx="88.0500" cy="3.0250" r="1.5000" /> 
<circle cx="28.8300" cy="128.8650" r="3.7000" /> 
<circle cx="68.8300" cy="128.8850" r="3.7000" /> 
<circle cx="8.8200" cy="16.2650" r="2.0000" /> 
<circle cx="49.0500" cy="3.0250" r="1.5000" /> 
<circle cx="88.8600" cy="108.8850" r="3.7000" /> 
<path style="fill:none; 
stroke:#000000; stroke-width:0.0500; stroke-opacity:1; 
stroke-linecap:round; stroke-linejoin:round;fill:none"
d="M 0.0500,0.0250
98.0500,0.0250
98.0500,148.0250
0.0500,148.0250
Z" /> 
<circle cx="8.8300" cy="128.8850" r="3.7000" /> 
<circle cx="8.8400" cy="108.8950" r="3.7000" /> 
</g> 
</svg>
